<?xml version="1.0" encoding="UTF-8"?>
<svg xmlns="http://www.w3.org/2000/svg" version="1.1" viewBox="0 0 128 128">
  <!-- Generator: Adobe Illustrator 28.7.1, SVG Export Plug-In . SVG Version: 1.2.0 Build 142)  -->
  <g>
    <g id="Layer_1">
      <g>
        <path d="M8.3,3c13,0,29.3.2,42.3-.1,2.7-.7,5.4.7,8.1,1.4,8.2,2.6,16.2,5.2,24.2,8.7-8,3.4-16,6.1-24.2,8.7-2.7.7-5.4,2.1-8.1,1.4-6.2-.2-14.6-.1-22.3,0v82.1c5.4,0,11.2,0,14.2,0,3.2,0,7,0,10.1-.2,1.4,0,4.6,1.3,6,1.7,8.2,2.6,16.2,5.2,24.2,8.6-9.3,3.8-18.7,6.9-28.2,9.8-1.3.5-2.7.5-4,.3-2.3-.2-5.7,0-8.1,0-9.7,0-24.5,0-34.2,0,0-13.4,0-108.8,0-122.1Z"/>
        <path d="M79.4,87.7c-10.9-9.5-28.5-18.5-42.7-23.8,14.2-5.3,31.8-14.3,42.7-23.8l-6.8,18.8h10.1s37.3,0,37.3,0v10h-37.3s-10.1,0-10.1,0l6.8,18.8Z"/>
      </g>
    </g>
  </g>
</svg>